<?xml version="1.0" encoding="UTF-8"?>
<!DOCTYPE svg PUBLIC "-//W3C//DTD SVG 1.1//EN" "http://www.w3.org/Graphics/SVG/1.1/DTD/svg11.dtd">
<svg xmlns="http://www.w3.org/2000/svg" version="1.1" width="512px" height="512px" style="shape-rendering:geometricPrecision; text-rendering:geometricPrecision; image-rendering:optimizeQuality; fill-rule:evenodd; clip-rule:evenodd" xmlns:xlink="http://www.w3.org/1999/xlink">
<g><path style="opacity:0.965" fill="#000000" d="M 511.5,123.5 C 511.5,211.5 511.5,299.5 511.5,387.5C 505.79,408.378 492.457,421.878 471.5,428C 399.521,429.152 327.521,429.652 255.5,429.5C 183.479,429.652 111.479,429.152 39.5,428C 18.5434,421.878 5.21012,408.378 -0.5,387.5C -0.5,299.5 -0.5,211.5 -0.5,123.5C 5.21012,102.622 18.5434,89.1223 39.5,83C 111.479,81.8478 183.479,81.3478 255.5,81.5C 327.521,81.3478 399.521,81.8478 471.5,83C 492.448,89.1136 505.781,102.614 511.5,123.5 Z M 61.5,113.5 C 190.666,112.334 319.999,112.167 449.5,113C 384.975,161.692 320.308,210.192 255.5,258.5C 190.815,210.142 126.148,161.809 61.5,113.5 Z M 30.5,129.5 C 86.7882,171.122 142.788,213.122 198.5,255.5C 142.832,297.661 86.9987,339.661 31,381.5C 30.5,297.501 30.3333,213.501 30.5,129.5 Z M 479.5,129.5 C 480.666,213.332 480.832,297.332 480,381.5C 424.001,339.661 368.168,297.661 312.5,255.5C 368.185,213.476 423.852,171.476 479.5,129.5 Z M 224.5,275.5 C 231.95,280.401 239.284,285.568 246.5,291C 252.5,294.333 258.5,294.333 264.5,291C 271.167,286 277.833,281 284.5,276C 285.908,275.685 287.241,276.018 288.5,277C 342.167,317.333 395.833,357.667 449.5,398C 320.167,398.667 190.833,398.667 61.5,398C 115.901,357.146 170.235,316.313 224.5,275.5 Z"/></g>
</svg>
