<?xml version="1.0" encoding="UTF-8"?>
<!DOCTYPE svg PUBLIC "-//W3C//DTD SVG 1.1//EN" "http://www.w3.org/Graphics/SVG/1.1/DTD/svg11.dtd">
<svg xmlns="http://www.w3.org/2000/svg" version="1.1" width="512px" height="512px" style="shape-rendering:geometricPrecision; text-rendering:geometricPrecision; image-rendering:optimizeQuality; fill-rule:evenodd; clip-rule:evenodd" xmlns:xlink="http://www.w3.org/1999/xlink">
<g><path style="opacity:0.987" fill="#000000" d="M 85.5,11.5 C 105.503,11.3334 125.503,11.5 145.5,12C 154.965,14.7983 161.132,20.965 164,30.5C 172.563,66.5843 180.73,102.751 188.5,139C 187.991,147.193 185.491,154.693 181,161.5C 169.304,172.862 157.97,184.529 147,196.5C 137,213.833 137,231.167 147,248.5C 176.749,292.249 213.249,329.416 256.5,360C 276.977,374.893 297.644,375.227 318.5,361C 328.833,350.667 339.167,340.333 349.5,330C 356.16,325.613 363.493,323.113 371.5,322.5C 410.569,330.101 449.236,339.268 487.5,350C 494.109,353.602 497.942,359.102 499,366.5C 499.667,386.167 499.667,405.833 499,425.5C 492.365,471.134 466.032,495.8 420,499.5C 354.95,495.149 294.45,476.316 238.5,443C 148.893,389.061 83.0592,314.227 41,218.5C 23.7777,177.724 13.9444,135.224 11.5,91C 15.3824,44.9564 40.0491,18.4564 85.5,11.5 Z"/></g>
</svg>
